<svg preserveAspectRatio="xMidYMid meet" data-bbox="56.475 31.38 261.906 312.594" height="500" viewBox="0 0 375 375" width="500" xmlns="http://www.w3.org/2000/svg" data-type="ugc" role="presentation" aria-hidden="true" aria-label="">
    <g>
        <defs>
            <clipPath id="d2c5c3f9-4274-484c-aeed-cd6ae2265075_comp-lx2x2fwk">
                <path d="M166 128h13v6h-13Zm0 0"></path>
            </clipPath>
            <clipPath id="09efa37a-4e8b-4278-ba7a-708a71824acf_comp-lx2x2fwk">
                <path d="m165.715 128.633 13.472.902-.253 3.742-13.47-.902Zm0 0"></path>
            </clipPath>
            <clipPath id="bc642d2d-5133-440e-80d1-d1760da2a6f3_comp-lx2x2fwk">
                <path d="m148.969 127.512 29.933 2.004-.25 3.742-29.933-2.004Zm0 0"></path>
            </clipPath>
            <clipPath id="798828fb-eccc-474e-92d0-5a67a0d25b38_comp-lx2x2fwk">
                <path d="m166.195 128.668 12.711.852-.25 3.738-12.71-.852Zm0 0"></path>
            </clipPath>
            <clipPath id="00677139-6823-4179-89df-625a470a032a_comp-lx2x2fwk">
                <path d="m166.195 128.668 12.707.852-.25 3.734-12.707-.852Zm0 0"></path>
            </clipPath>
            <clipPath id="078d34b3-a670-4583-bd4b-ae06766b7c09_comp-lx2x2fwk">
                <path d="M150 127h10v4h-10Zm0 0"></path>
            </clipPath>
            <clipPath id="760d935d-9027-4fc9-89a7-3d835bd485cb_comp-lx2x2fwk">
                <path d="m150.52 127.703 9.73.652-.2 2.993-9.73-.649Zm0 0"></path>
            </clipPath>
            <clipPath id="90fe5e70-334f-408a-b37d-ea717cf9f7ae_comp-lx2x2fwk">
                <path d="m171.582 129.117-20.953-1.406-.2 2.992 20.954 1.406Zm0 0"></path>
            </clipPath>
            <clipPath id="793268b6-4b49-41ec-aed1-45e5ba163a38_comp-lx2x2fwk">
                <path d="m159.523 128.309-8.898-.598-.2 2.992 8.9.598Zm0 0"></path>
            </clipPath>
            <clipPath id="072d1ff0-1b00-48e8-a5b9-81641aa55125_comp-lx2x2fwk">
                <path d="m159.523 128.309-8.894-.598-.2 2.992 8.895.598Zm0 0"></path>
            </clipPath>
            <clipPath id="1c11d14c-077f-488a-bbc8-ee3abe8e1c8a_comp-lx2x2fwk">
                <path d="M143 142h12v9h-12Zm0 0"></path>
            </clipPath>
            <clipPath id="ed1eb00e-6c26-4608-b736-4e4eb0dc211e_comp-lx2x2fwk">
                <path d="m144.39 141.79 11.169 1.355-.907 7.445-11.168-1.356Zm0 0"></path>
            </clipPath>
            <clipPath id="43011306-c267-4d44-9dfe-8bf59db5c341_comp-lx2x2fwk">
                <path d="m144.39 141.79 11.169 1.355-1.63 13.402-11.167-1.356Zm0 0"></path>
            </clipPath>
            <clipPath id="2b3e196d-eb94-49e7-b0c4-437a67d08626_comp-lx2x2fwk">
                <path d="M151 174h5v4h-5Zm0 0"></path>
            </clipPath>
            <clipPath id="4ac2fb8f-a597-4c35-8877-7029f4c4e2ba_comp-lx2x2fwk">
                <path d="m154.023 178.625-3.683-2.645 1.984-2.765 3.684 2.648Zm0 0"></path>
            </clipPath>
            <clipPath id="576f1e59-863c-49e9-af3f-00525c1f3676_comp-lx2x2fwk">
                <path d="M152.184 177.305c1.015.73 2.28.71 2.82-.043.539-.754.152-1.953-.863-2.688-1.02-.73-2.282-.71-2.825.043-.539.754-.152 1.957.868 2.688"></path>
            </clipPath>
            <clipPath id="4c4cf297-7f75-4645-8ab6-7fc547897dda_comp-lx2x2fwk">
                <path d="M138 181h4v8h-4Zm0 0"></path>
            </clipPath>
            <clipPath id="a79b4177-bbd7-4ed8-a2be-cd5154b56bdd_comp-lx2x2fwk">
                <path d="m138.473 188.477 1.578-7.332 1.469.316-1.583 7.328Zm0 0"></path>
            </clipPath>
            <clipPath id="7296c30c-6212-45ca-a28d-f40ae92a0ed8_comp-lx2x2fwk">
                <path d="m138.473 188.477 3.789-17.598 1.468.316-3.792 17.594Zm0 0"></path>
            </clipPath>
        </defs>
        <path d="M304.754 239.746s-1.211 1.774-3.352 5.188c-1.066 1.703-2.625 3.644-4.34 6.035-1.718 2.402-3.91 4.957-6.425 7.797-5.016 5.66-11.64 12.214-20.352 18.347-1.086.766-2.207 1.524-3.336 2.305-.566.39-1.137.777-1.71 1.18a30.12 30.12 0 0 1-1.762 1.152c-1.223.715-2.45 1.469-3.696 2.223-.625.379-1.254.757-1.886 1.136-.192.118-.504.32-.957.575-.2.105-.532.27-.997.515-5.296 2.801-10.996 5.563-17.21 7.809-1.555.562-3.126 1.137-4.711 1.695-1.594.555-3.254.965-4.907 1.445-.828.243-1.66.477-2.496.715-.84.235-1.672.48-2.535.657-1.723.351-3.445.757-5.191 1.132-.875.188-1.746.407-2.637.559-.887.148-1.785.266-2.684.398-1.804.262-3.613.555-5.449.793-1.828.243-3.695.336-5.566.48-1.871.145-3.758.34-5.664.34-1.907-.003-3.825.055-5.758.075-.676.008-1.16.012-1.45.015-.038 0-.097.004-.183.004-.14-.003-.242-.015-.3-.02-.071 0-.188-.003-.348-.01a101.67 101.67 0 0 1-.704-.036c-.937-.043-1.878-.09-2.82-.133-.945-.047-1.894-.066-2.844-.137-1-.07-1.996-.19-3.004-.293-2.003-.199-4.05-.394-6.02-.695-7.933-1.222-16-2.957-23.937-5.613a135.442 135.442 0 0 1-23.289-10.344 134.776 134.776 0 0 1-21.464-14.937C98.059 264.378 91.805 258 86.254 251c-5.55-7.004-10.473-14.555-14.594-22.527-8.242-15.953-13.293-33.563-14.668-51.172-.172-2.203-.355-4.399-.394-6.594-.02-1.098-.067-2.195-.09-3.293-.012-.543-.04-1.094-.031-1.64l.039-1.641c.027-1.09.058-2.18.09-3.274.019-.757.03-1.304.042-1.629.004-.113.008-.296.02-.558.012-.18.027-.309.035-.387l.059-.777.246-3.106c.023-.308.07-.828.12-1.55a26.28 26.28 0 0 1 .157-1.594c.297-2.18 1.559-10.758 1.973-12.844.414-2.094.933-4.156 1.43-6.207.5-2.055 1.124-4.07 1.71-6.078 4.704-16.106 12.622-30.524 21.872-42.656 4.628-6.075 9.668-11.543 14.894-16.426 5.223-4.883 10.598-9.234 16.09-12.914 5.488-3.68 10.937-6.899 16.34-9.512.676-.328 1.336-.664 2-.984.668-.32 1.347-.598 2.02-.895 1.327-.586 2.64-1.183 3.948-1.719 1.313-.535 2.63-1.003 3.915-1.492a74.65 74.65 0 0 1 3.812-1.367c10.137-3.262 19.23-5.027 26.734-5.953 3.762-.465 7.133-.672 10.059-.766a112.76 112.76 0 0 1 7.434-.008c4.023.145 6.168.325 6.168.325s-2.141.097-6.145.41c-2 .152-4.465.39-7.328.805-2.875.414-6.152.941-9.79 1.734-7.257 1.574-15.894 4.148-25.398 8-1.191.48-2.37 1.035-3.562 1.598-1.195.566-2.422 1.105-3.637 1.714-1.215.61-2.422 1.278-3.652 1.938-.613.328-1.246.64-1.856.996-.613.36-1.214.73-1.836 1.09-4.949 2.879-9.945 6.238-14.898 10.047-4.957 3.808-9.809 8.172-14.441 13.02-4.633 4.85-9.11 10.163-13.149 16.011-8.074 11.688-14.902 25.227-18.765 40.129-.485 1.867-1 3.73-1.399 5.625-.398 1.894-.812 3.797-1.16 5.715-.348 1.918-1.3 9.629-1.531 11.55-.055.465-.09.977-.117 1.497-.04.726-.067 1.246-.086 1.558-.055 1.031-.114 2.067-.172 3.11a41.62 41.62 0 0 0-.047.777l-.024.39c.004 0 .008.036.008.04.04.023 0 .148 0 .183-.004.301-.004.797-.008 1.492-.004 1-.007 1.996-.015 2.993-.004.3-.012.8-.016 1.5-.004.496.031 1 .05 1.496.048 1.402.103 2.398.122 3 .059 2.004.254 4.004.441 6.007 1.5 16.016 6.196 31.938 13.676 46.442 7.485 14.504 17.739 27.559 29.852 38.125a131.005 131.005 0 0 0 19.347 13.992c6.793 4.016 13.891 7.328 21.09 10.012 7.207 2.683 14.586 4.46 21.867 5.894 1.84.36 3.614.586 5.399.844.894.129 1.781.274 2.672.375.941.11 1.887.168 2.828.246l2.812.246c.329.028.559.051.7.063.07.004.187.015.351.027l.047.012s.09 0 .172.004c.629.015 1.078.023 1.348.035 1.796.055 3.586.094 5.355.18 1.777.086 3.535-.016 5.285-.067 1.754-.05 3.496-.055 5.219-.199 1.719-.14 3.426-.336 5.117-.5.848-.082 1.695-.145 2.535-.242.836-.094 1.664-.258 2.493-.387 1.656-.262 3.296-.547 4.93-.785.816-.117 1.612-.305 2.41-.484.8-.184 1.593-.356 2.382-.54 1.578-.367 3.16-.664 4.695-1.101 1.528-.438 3.043-.883 4.54-1.328a129.757 129.757 0 0 0 31.203-13.969c8.734-5.398 15.843-10.984 21.25-16.086 2.703-2.547 5.113-4.86 7.043-7 1.937-2.148 3.675-3.918 4.93-5.496 2.511-3.148 3.937-4.754 3.937-4.754" fill="#004aff"></path>
        <path d="M195.957 277.71s-1.844-.038-5.3.017c-1.731.027-3.856-.188-6.384-.305-2.543-.117-5.406-.504-8.632-.992-6.43-.977-14.211-2.82-22.77-6.13-8.543-3.304-17.871-8.113-26.953-15.019a352.212 352.212 0 0 1-3.43-2.629c-1.144-.898-2.215-1.914-3.332-2.89-.558-.489-1.12-.989-1.68-1.48-.566-.5-1.136-.993-1.663-1.536-1.06-1.09-2.157-2.152-3.243-3.246-.543-.55-1.113-1.082-1.636-1.656-.524-.578-1.028-1.176-1.543-1.77-1.032-1.187-2.086-2.37-3.11-3.594-1.027-1.218-1.969-2.53-2.945-3.824-.98-1.297-2-2.582-2.887-3.965-.886-1.386-1.824-2.757-2.738-4.152-.32-.492-.547-.844-.688-1.055-.039-.062-.07-.105-.085-.132l-.137-.239c-.031-.054-.078-.14-.149-.261l-.304-.524c-.403-.695-.805-1.402-1.207-2.105-.407-.707-.832-1.403-1.22-2.118-.413-.77-.796-1.55-1.194-2.332-.79-1.558-1.602-3.148-2.301-4.722-2.813-6.352-5.297-13.043-7.067-20.07a117.082 117.082 0 0 1-3.308-21.82 116.806 116.806 0 0 1 .898-22.634c1.051-7.566 2.79-15.109 5.317-22.425 2.527-7.313 5.742-14.434 9.644-21.16 7.805-13.45 18.313-25.337 30.531-34.52 1.524-1.149 3.036-2.313 4.625-3.352 1.594-1.039 3.125-2.16 4.758-3.117.488-.285 1.297-.773 2.43-1.45l1.21-.726c.087-.05.231-.136.438-.25.133-.078.235-.129.293-.16.118-.062.317-.164.594-.312 1.102-.582 1.89-1.004 2.363-1.254.551-.293.942-.5 1.18-.625.383-.207.781-.414 1.23-.621 1.739-.797 3.442-1.676 5.176-2.426 1.7-.738 3.414-1.434 5.13-2.102 1.718-.668 3.46-1.246 5.187-1.832 1.73-.59 3.488-1.066 5.23-1.57 13.926-4.031 28.11-4.91 41.227-3.754a113.868 113.868 0 0 1 18.847 3.305c5.965 1.566 11.618 3.492 16.825 5.808 5.203 2.32 10.046 4.828 14.437 7.563.55.34 1.102.668 1.645 1.004.539.34 1.054.71 1.574 1.062 1.039.703 2.078 1.383 3.07 2.094.992.711 1.942 1.453 2.883 2.16.95.711 1.871 1.43 2.746 2.168 7.012 5.922 12.492 11.723 16.543 16.817 2.078 2.52 3.695 4.941 5.14 7.003 1.352 2.13 2.508 3.934 3.391 5.422l2.57 4.653s-1.105-1.477-3.175-4.239c-1.059-1.363-2.422-2.992-4.004-4.91-1.695-1.828-3.531-4.011-5.813-6.246-4.476-4.535-10.394-9.512-17.586-14.555-.898-.628-1.847-1.218-2.804-1.82-.957-.601-1.918-1.23-2.914-1.82-1-.598-2.04-1.156-3.082-1.738-.524-.29-1.04-.602-1.575-.875-.539-.278-1.09-.54-1.636-.82-4.356-2.231-9.086-4.262-14.114-6.063a109.278 109.278 0 0 0-16.03-4.356c-5.618-1.086-11.497-1.851-17.555-2.054-12.11-.407-24.97.933-37.438 5.02-1.559.507-3.133.995-4.676 1.581-1.547.586-3.101 1.16-4.633 1.793a108.579 108.579 0 0 0-4.582 2.02c-1.476.691-2.914 1.476-4.39 2.187-.36.172-.742.383-1.133.606-.543.308-.93.527-1.164.656-.465.266-1.238.707-2.328 1.316-.274.157-.469.262-.586.328-.059.032-.29.164-.29.164l-.007.012c0 .004-.07.047-.133.09l-1.074.68c-.43.273-1.14.742-2.156 1.363-1.453.887-2.817 1.918-4.23 2.867-1.419.957-2.759 2.02-4.11 3.074-10.817 8.422-20.078 19.114-27.074 31.145-6.993 12.031-11.688 25.387-13.758 38.945a111.765 111.765 0 0 0-1.235 20.34c.207 6.73 1.055 13.363 2.403 19.781 1.351 6.426 3.445 12.563 5.722 18.473.575 1.5 1.22 2.875 1.84 4.277.317.703.614 1.407.946 2.098.351.734.746 1.445 1.117 2.168.37.719.742 1.441 1.11 2.152.085.164.413.813.417.809l.008.027.07.121c.274.465.473.793.59.993.781 1.324 1.567 2.632 2.313 3.953.746 1.324 1.617 2.55 2.453 3.793.832 1.242 1.629 2.504 2.515 3.683.887 1.176 1.805 2.32 2.692 3.473.445.578.879 1.16 1.328 1.723.453.566.941 1.09 1.414 1.628.941 1.082 1.898 2.137 2.809 3.211.457.54.96 1.028 1.453 1.524.492.492.98.992 1.468 1.476.985.98 1.922 1.993 2.934 2.903 1.012.906 2.023 1.8 3.027 2.683 8.016 7.07 16.446 12.364 24.309 16.254 7.879 3.895 15.168 6.531 21.332 8.145 3.082.804 5.86 1.508 8.3 1.937 2.438.43 4.512.895 6.235 1.09 3.434.399 5.254.715 5.254.715" fill="#009cff"></path>
        <path d="M122.797 213.453s-.488-.715-1.395-2.058c-.449-.672-1.007-1.504-1.648-2.485-.64-.984-1.29-2.183-2.035-3.523-.38-.672-.801-1.367-1.176-2.125-.371-.758-.742-1.563-1.133-2.39-.398-.84-.824-1.708-1.23-2.622-.407-.91-.754-1.887-1.145-2.883-.387-1-.82-2.023-1.176-3.11-.355-1.081-.695-2.206-1.054-3.359-.176-.578-.364-1.164-.543-1.753-.18-.598-.305-1.211-.457-1.829-.305-1.234-.598-2.504-.899-3.8-.3-1.297-.472-2.645-.707-4.016-.117-.684-.226-1.375-.34-2.074-.117-.7-.164-1.41-.242-2.13-.152-1.429-.328-2.89-.41-4.382a114.613 114.613 0 0 1-.137-4.539c-.11-6.145.41-12.691 1.852-19.3.719-3.298 1.562-6.637 2.68-9.938.28-.828.527-1.664.808-2.496.281-.828.63-1.637.957-2.457.324-.82.66-1.637.992-2.454.102-.25.262-.664.508-1.238.172-.402.38-.797.574-1.199.79-1.633 1.551-3.29 2.395-4.91.234-.453.652-1.195 1.234-2.238.125-.227.336-.598.63-1.118.206-.375.476-.78.71-1.168.68-1.101 1.18-1.879 1.469-2.351.488-.79 1.016-1.504 1.52-2.262 1-1.504 2.085-2.957 3.187-4.394 4.402-5.754 9.559-10.934 15.125-15.372a91.925 91.925 0 0 1 8.617-6.117 96.965 96.965 0 0 1 8.996-4.996c6.078-2.941 12.27-5.058 18.238-6.512a87.96 87.96 0 0 1 17.063-2.394c5.32-.223 10.18.074 14.43.586 1.066.125 2.093.305 3.078.453.492.074.976.14 1.449.227.473.085.934.191 1.387.285.906.191 1.773.351 2.594.543.82.191 1.597.418 2.335.605 1.485.367 2.778.785 3.907 1.149.558.183 1.082.336 1.55.504.477.171.895.328 1.282.468 1.515.567 2.324.887 2.324.887s-.86-.11-2.465-.332c-.398-.055-.844-.125-1.332-.191-.488-.067-1.031-.11-1.61-.168-1.163-.114-2.492-.266-3.984-.356-.746-.047-1.527-.121-2.347-.164-.825-.043-1.684-.059-2.578-.086-.45-.012-.907-.035-1.372-.043-.464-.004-.937 0-1.421.004-.965.008-1.957-.016-2.985.031-1.027.047-2.09.063-3.176.125-1.09.067-2.203.168-3.351.262-1.14.098-2.309.262-3.504.383-1.191.125-2.402.351-3.64.531-1.235.18-2.485.457-3.762.688-1.278.23-2.563.562-3.868.867a83.44 83.44 0 0 0-3.953 1.043 94.404 94.404 0 0 0-4.011 1.258c-5.387 1.808-10.907 4.14-16.266 7.148-2.684 1.504-5.356 3.113-7.938 4.93-.648.457-1.308.886-1.941 1.363-.637.477-1.262.965-1.902 1.437-.64.473-1.266.973-1.887 1.477-.621.504-1.25 1-1.867 1.512a88.194 88.194 0 0 0-13.414 14.035c-.992 1.297-1.992 2.582-2.899 3.926-.453.672-.957 1.336-1.379 2.004-.254.402-.683 1.066-1.273 2.003-.211.34-.426.645-.64 1.016-.298.52-.512.89-.641 1.113-.598 1.036-1.047 1.762-1.293 2.211-.766 1.387-1.465 2.805-2.18 4.207-.18.36-.379.707-.547 1.075-.101.214-.254.585-.476 1.101-.32.73-.645 1.461-.965 2.192-.32.73-.68 1.44-.961 2.183-.285.742-.555 1.484-.824 2.227-.543 1.476-1.125 2.937-1.543 4.445-.414 1.5-.942 2.96-1.336 4.445-1.57 5.95-2.54 11.86-2.953 17.524-.102 1.422-.215 2.82-.258 4.203-.047 1.383-.016 2.75-.016 4.09 0 .672-.031 1.34.004 2 .035.66.07 1.316.11 1.965.078 1.293.105 2.574.23 3.82.125 1.25.262 2.473.398 3.664.07.598.118 1.195.211 1.77.098.582.196 1.156.29 1.722.187 1.133.355 2.242.546 3.313.192 1.078.457 2.101.68 3.109.219 1.004.406 1.988.652 2.926.246.933.516 1.824.758 2.683.242.864.453 1.703.695 2.489.239.785.5 1.52.739 2.222.48 1.407.867 2.696 1.285 3.79.422 1.097.808 2.019 1.101 2.769.594 1.512.895 2.324.895 2.324" fill="#00deff"></path>
        <path fill-rule="evenodd" d="M152.746 237.898c-2.629 1.625-1.418 14.848.57 20.625 2.282 6.641 11.118 17.403 15.504 21.48 3.817 4.794 4.254 9.493 4.836 11.665 3.285 1.89 13.531.457 15.364-1.992-1.868-4.438-2.075-9.88-2.418-14.793 1.933-4.203 5.402-14.313 5.12-18.918-3.874-9.473-33.476-21.469-38.976-18.067Zm0 0" fill="#004aff"></path>
        <path fill-rule="evenodd" d="M239.945 235.621c1.356.176 3.075 7.887 4.41 9.816 2.516 3.63 6.465 6.036 8.965 9.672 1.782 2.594 4.258 6.79 4.977 9.246 2.371 8.094-2.629 16.84-10.809 22.907-8.093 5.996-19.312 9.347-27.597 10.808-5.989 1.055-10.614 2.059-17.07 2.703-6.512.653-14.114.485-21.055 0-34.86-2.433-60.778-19.73-62.024-21.48-.379-.531-3.406-6.555 13.09-3.414 16.797 10.7 34.05 12.922 45.375 13.656 21.95 1.426 41.758-8.41 42.82-10.808 3.82-8.645 3.137-17.086 7.11-25.606 2.383-5.105 8.547-17.918 11.808-17.5Zm0 0" fill="#004aff"></path>
        <path fill-rule="evenodd" d="M157.156 246.004c7.969 7.484 12.23 12.586 26.602 13.516 13.039.843 27.129-2.31 26.887-6.97-.239-4.55-12.872-17.53-15.083-23.331.211 3.875-5.382 12.578-9.671 15.078-6.121 3.574-16.258 2.758-28.735 1.707Zm0 0" fill="#00bdff"></path>
        <path fill-rule="evenodd" d="M168.82 146.191c-1.043 9.008-9.449 16.282-12.234 20.91-5.524 9.184-6.879 15.348-8.11 26.036-.788 6.875-1.292 21.699.145 28.449 1.64 7.71 4.961 19.555 9.246 24.469 12.235 14.035 36.934 5.425 45.375-.996 7.852-5.977 6.262-20.602 5.121-31.438-2.148-20.476-27.828-60.3-31.293-71.27-2.144-.722-6.61 1.848-8.25 3.84Zm0 0" fill="#00f6ff"></path>
        <path fill-rule="evenodd" d="M147.484 197.473c-.629 2.492 6.23 4.199 7.543 4.828 1.93.926 10.79 2.933 13.278 5.332 1.164 1.12 10.222 11.437 7.14 15.289-1.777 2.223-23.035 5.476-27.863 4.93-4.422-.149-7.168-3.625-10.965-10.43-1.676-3.004-2.36-6.395-3.62-7.918-1.567-1.899-6.731-5.05-6.536-6.117.469-2.59 17.36-5.383 21.02-5.914Zm0 0" fill="#ff00aa"></path>
        <path fill-rule="evenodd" d="M151.707 208.133c-.617-1.145.813-3.973 1.309-5.633.875-2.95 1.832-6.094 3.316-8.75.797-1.426 2.332-3.703 3.422-4.727.937-.882 4.613-2.199 4.527.5-.039 1.137-.933 2.657-1.207 3.825-.308 1.304-.601 3.09-.707 4.425-.137 1.739.102 4.082.102 5.836 0 2.715 1.136 8.25-.102 9.051-1.539.996-9.34-2.074-10.66-4.527Zm0 0" fill="#ff00aa"></path>
        <path fill-rule="evenodd" d="M127.063 158.645c2.769-.145-2.391 6.261-2.715 8.449-1.086 7.289-.035 7.922 1.105 11.27.555 1.624 3.344 4.835 4.223 5.429-1.434 1.297-4.23 3.582-6.235 4.727.309-.965-1.613-3.208-2.714-4.727-1.407-1.934-3.758-5.52-4.051-8.797-.196-2.191.539-7.328 3.558-10.598 1.922-2.078 4.918-5.652 6.829-5.753Zm0 0" fill="#aa00ff"></path>
        <path fill-rule="evenodd" d="M124.445 182.79c5.895-5.915 12.364-4.368 14.485-4.024 1.175.187 3 .984 3.824 1.71.82-.484 2.371-1.785 3.32-2.413 1.156-.774 2.93-1.973 4.223-2.415.82-.28 1.898-.468 2.715-.304.816.168 2.465 1.351 2.918 2.011.804 1.172.726 3.497.703 5.032-.031 2.36-.953 5.234-1.809 7.441-.715 1.844-2.199 4.285-3.52 5.734-1.085 1.188-1.167 1.836-3.925 3.622.16 1.886-5.027 5.992-6.234 6.539-3.598 1.625-8.883 1.953-14.485-1.91-3.43-2.368-5.742-7.231-5.836-10.563-.09-3.277.926-7.758 3.621-10.46Zm0 0" fill="#ff00aa"></path>
        <path fill-rule="evenodd" d="M133.676 157.5c.523.441.48 2.105-.285 3.84-.536 1.222-2.664 5.437-2.774 6.758-.46 5.53 1.168 5.441 1.492 8.68.25 2.468.2 4.452-.218 6.413-.82.551-2.715 1.547-4.63 3.016-1.41.063-2.097-1.023-3.257-2.39-1.848-2.172-3.68-8.215-3.414-11.165.23-2.59 1.957-6.918 3.625-9.035 2.12-2.695 7.312-7.918 9.46-6.117Zm0 0" fill="#ff00aa"></path>
        <path fill-rule="evenodd" d="M140.238 223.07c7.442 5.477 22.922 2.832 30.278.051 5.847-2.21 10.058-7.406 12.37-9.758-9.038 15.301-7.972 31.617.305 36.715-3.96 2.54-9.246 3.57-11.668 3.52-6.699-.141-16.246-4.653-21.226-9.453-4.55-4.391-8.547-8.168-10.36-15.442-.707-3.398-.386-4.3.301-5.633Zm0 0" fill="#00f6ff"></path>
        <path fill-rule="evenodd" d="M189.875 134.625c-.457 3.906-.46 15.008 1.281 20.059 4.496 13.074 17.875 28.668 24.324 36.132 4.43 5.13 12.18 13.852 15.79 19.204 2.87 4.257 7.707 11.906 9.105 16.785 1.863 6.507 3.223 16.074 1.137 22.191-4.844 14.203-11.633 17.043-15.649 21.625-3.02 5.86-3.238 4.844-4.125 9.102-3.304.988-4.437 3.304-15.363 6.402-.254-3.871-2.137-7.344-4.977-13.797-5.972-6.172-13.16-19.976-13.941-28.453-1.012-10.965 2.086-18.387 5.262-22.191 2.515-3.008 5.851-8.387 11.238-9.672-3.715-3.703-7.594-9.43-13.516-14.367-3.785 2.457-7.683 4.246-10.097 5.832-3.848 2.53-3.88 2.351-10.953 7.398-2.602 1.855-5.387 6.082-7.684 6.828-3.559 1.149-4.543-.453-4.836-3.414-.258-2.594 2.324-6.758 4.125-9.816 1.34-2.278 6.574-7.942 9.106-10.668 2.828-3.051 6.875-6.227 8.96-9.676 1.204-1.988 2.317-4.11 2.278-6.399-.055-3.218-2.688-7.417-3.559-10.671-.66-2.477-2.035-9.461-1.562-14.223.625-6.336 1.078-15.465 3.414-17.215 1.668-1.246 8.84-2.441 10.242-.996Zm0 0" fill="#00bcfe"></path>
        <path fill-rule="evenodd" d="M169.813 109.063c-2.915-.801-5.297-4.672-8.047-8.852-3.059-4.652-3.559-10.715-5.434-15.492-.855-2.18-3.883.726-4.426 1.61-5.152 8.39-4.761 15.562-2.21 22.632 1.796 4.996 7.679 7.727 10.96 8.953 3.324-2.277 4.621-6.02 9.156-8.852Zm0 0" fill="#004aff"></path>
        <path fill-rule="evenodd" d="M184.086 105.094c-2.422-1.09-8.777-1.254-11.469-.906-3.332.433-7.094 1.812-9.855 3.722-2.871 1.985-5.793 6.453-7.344 9.555-1.438 2.875-2.387 6.078-2.211 10.562-2.746 4.383-5.55 8.32-6.941 11.668-1.735 4.168-1.758 10.489 3.82 13.078 2.078.965 6.934.977 9.555.5 5.324-.96 11.855-5.441 16.902-7.843 4.152-1.98 10.562-3.735 13.777-6.739 2.364-2.207 4.848-6.605 5.633-9.757.824-3.297.613-9.262-.703-12.274-1.898-4.344-6.8-9.601-11.164-11.566Zm0 0" fill="#00bdff"></path>
        <path fill-rule="evenodd" d="M180.402 107.148c.29-1.109 3.325-1.414 4.528-2.613 3.84-3.836 8.254-9.285 11.465-12.273 2.574-2.39 5.164-4.27 8.25-5.832 2.136-1.086 5.484-2.192 7.843-2.215.692-.004 4.16-.309 3.422 2.617-.148.578-.836 1.383-1.308 1.91-.739.824-2.786 2.496-3.52 3.32-1.219 1.364-1.965 3.325-2.816 4.93-1.286 2.406-2.254 6.008-3.32 8.547-.833 1.977-1.54 3.965-2.716 5.734-1.152 1.727-4.21 4.907-6.84 6.239-1.28.644-3.535 3.66-4.43 3.62-3.612-.16-11.448-10.577-10.558-13.984Zm0 0" fill="#00bdff"></path>
        <path fill-rule="evenodd" d="M189.223 111.473c1.375-3.211 3.043-6.602 4.726-8.852 2.836-3.785 2.254-3.094 5.031-5.832 2.54-2.508 6.489-6.05 9.758-7.043.766-.23 2.649-.504 2.817.102-2.551 1.812-5.207 7.609-6.743 10.66-1.132 2.258-1.605 4.433-2.816 6.64-1.152 2.106-2.305 4.625-4.023 6.239-1.598 1.5-2.157 2.039-6.536 4.625a23.311 23.311 0 0 1-2.214-6.54Zm0 0" fill="#00eeff"></path>
        <g clip-path="url(#d2c5c3f9-4274-484c-aeed-cd6ae2265075_comp-lx2x2fwk)">
            <g clip-path="url(#09efa37a-4e8b-4278-ba7a-708a71824acf_comp-lx2x2fwk)">
                <g clip-path="url(#bc642d2d-5133-440e-80d1-d1760da2a6f3_comp-lx2x2fwk)">
                    <g clip-path="url(#798828fb-eccc-474e-92d0-5a67a0d25b38_comp-lx2x2fwk)">
                        <g clip-path="url(#00677139-6823-4179-89df-625a470a032a_comp-lx2x2fwk)">
                            <path d="M178.746 130.137a1.93 1.93 0 0 0-.137.047c-.054.015-.109.039-.175.054-.137.024-.286.075-.45.082-.082.004-.164.012-.25.016-.082 0-.168-.012-.25-.02a.853.853 0 0 1-.242-.043c-.074-.02-.152-.027-.219-.062a2.562 2.562 0 0 0-.191-.082c-.05-.031-.09-.066-.133-.09-.039-.027-.07-.043-.117-.086l-.21-.176a.196.196 0 0 0-.048-.03c.02-.036.031-.052.031-.052a.244.244 0 0 0-.046-.297.246.246 0 0 0-.344.016s-.125.137-.344.383c-.055.062-.11.14-.18.2-.07.062-.382.339-.468.417-.098.07-.2.14-.309.219-.11.07-.207.164-.336.226-.125.07-.254.137-.383.211-.129.082-.273.13-.422.188-.148.047-.285.129-.445.168-.156.039-.316.082-.476.125a1.132 1.132 0 0 1-.247.047l-.253.03a2.228 2.228 0 0 1-.512.044l-.512.004c-.18-.02-.355-.043-.531-.063-.09-.015-.195-.015-.274-.043l-.472-.125a1.07 1.07 0 0 1-.235-.07c-.156-.063-.312-.121-.464-.184-.153-.054-.282-.152-.426-.218-.14-.078-.281-.141-.399-.239-.125-.086-.242-.172-.359-.254-.125-.078-.211-.183-.316-.27l-.286-.257a39.013 39.013 0 0 0-.43-.492c-.066-.074-.105-.149-.156-.215-.18-.258-.289-.41-.289-.41l-.011-.016a.14.14 0 0 0-.16-.047.139.139 0 0 0-.083.18s.07.176.204.488c.039.079.07.168.12.258.055.086.305.492.376.606.086.105.175.215.273.328.098.11.188.238.309.344l.375.332c.125.12.277.21.426.312.152.098.3.211.472.29l.524.245c.172.09.382.133.574.196l.3.085c.102.032.188.032.286.051.183.028.37.059.554.086.067.008.024 0 .04.004h.601c.203.008.402-.023.602-.05.199-.036.398-.044.586-.106.187-.059.37-.113.554-.168.098-.027.192-.066.282-.11l.093.094c.028.032.082.082.133.125.05.043.102.098.16.14l.184.126c.062.047.137.082.203.121.074.035.14.078.219.105.074.028.148.055.218.086.075.024.153.036.223.055.07.02.14.031.211.035l.184.012c.054.008.109-.008.156-.012.043-.004.215-.027.215-.027l-.207-.063c-.04-.015-.086-.023-.133-.05-.047-.024-.094-.051-.149-.078a.86.86 0 0 1-.152-.102c-.047-.043-.101-.078-.148-.121-.047-.047-.09-.094-.137-.14-.047-.044-.086-.102-.121-.153a1.331 1.331 0 0 1-.11-.152c-.027-.051-.058-.098-.085-.145-.024-.047-.036-.09-.055-.125-.016-.043-.027-.063-.043-.11l-.024-.062c.07-.047.141-.09.208-.133.003 0 .003.004.007.004 0 0 .153.113.192.145.043.031.078.058.156.105.07.043.144.086.227.13.078.05.164.073.246.1.09.024.172.063.265.075l.27.039c.09.008.183.004.27.004.085.004.171-.012.25-.024.081-.015.16-.023.23-.043l.195-.058c.121-.031.211-.09.277-.113.067-.028.102-.047.102-.047s-.04.004-.113.008c-.07-.004-.168.015-.29 0-.054-.004-.12-.012-.187-.016-.066-.008-.133-.031-.203-.043-.07-.016-.14-.031-.207-.063-.066-.027-.137-.05-.2-.082-.062-.035-.124-.074-.183-.109-.058-.027-.105-.086-.152-.121-.047-.043-.098-.078-.121-.121l-.082-.102c-.024-.023-.055-.082-.078-.12a3.242 3.242 0 0 1-.11-.18s.004-.004.008-.004c.09-.106.29-.34.309-.36.03.02.062.04.101.055 0 0 .203.074.254.094.043.02.133.047.223.066.086.024.18.05.277.066.094.008.191.012.293.02.098.012.203-.008.305-.016a1.31 1.31 0 0 0 .3-.05c.098-.028.196-.047.29-.079.09-.039.175-.074.261-.109.168-.07.305-.176.426-.242.063-.04.11-.082.156-.117l.211-.168-.117.043" fill="#001d64"></path>
                        </g>
                    </g>
                </g>
            </g>
        </g>
        <g clip-path="url(#078d34b3-a670-4583-bd4b-ae06766b7c09_comp-lx2x2fwk)">
            <g clip-path="url(#760d935d-9027-4fc9-89a7-3d835bd485cb_comp-lx2x2fwk)">
                <g clip-path="url(#90fe5e70-334f-408a-b37d-ea717cf9f7ae_comp-lx2x2fwk)">
                    <g clip-path="url(#793268b6-4b49-41ec-aed1-45e5ba163a38_comp-lx2x2fwk)">
                        <g clip-path="url(#072d1ff0-1b00-48e8-a5b9-81641aa55125_comp-lx2x2fwk)">
                            <path d="M150.676 128.219c.027.011.054.031.09.05.035.016.074.043.117.063.09.031.191.082.304.106.055.015.11.027.168.039.06.007.122.007.176.011.059.008.117-.004.172-.011.055-.008.11-.008.16-.028l.14-.047c.04-.02.071-.043.102-.058.028-.016.051-.024.09-.055l.16-.117.04-.024c-.012-.027-.016-.043-.016-.043a.213.213 0 0 1 .062-.23c.075-.059.18-.04.235.047 0 0 .074.121.199.34.031.05.063.12.105.175.043.055.23.31.282.38.062.062.125.132.195.203.066.066.129.152.211.214.078.067.16.133.242.207.082.075.18.13.274.188.097.055.187.133.293.18.105.046.21.097.316.148.055.027.11.043.168.059l.172.054c.113.035.226.075.347.086l.36.051c.125 0 .25.004.375.004.062-.004.137.008.191-.004l.34-.055a.695.695 0 0 0 .172-.03c.113-.036.227-.067.336-.099.113-.03.215-.093.32-.132.106-.047.211-.086.301-.149l.273-.168c.094-.05.165-.125.247-.183l.222-.176.348-.348c.055-.05.09-.105.129-.152l.242-.297.012-.012a.086.086 0 0 1 .117-.02c.047.028.062.094.035.15 0 0-.066.132-.191.366-.032.059-.063.13-.106.192a29.42 29.42 0 0 1-.324.445 5.79 5.79 0 0 1-.219.23c-.082.079-.156.172-.25.243-.094.074-.191.148-.293.226-.097.082-.21.14-.328.207-.113.063-.23.137-.355.184l-.387.14c-.129.055-.277.067-.418.098l-.219.04c-.074.015-.133.007-.2.011l-.394.012h-.027l-.418-.063a1.932 1.932 0 0 1-.414-.097c-.133-.047-.27-.075-.394-.145a31.28 31.28 0 0 1-.368-.188 1.105 1.105 0 0 1-.183-.113l-.075.063a.897.897 0 0 1-.105.086c-.039.03-.082.07-.125.097a1.31 1.31 0 0 0-.14.082c-.047.028-.102.047-.153.075-.055.02-.105.046-.16.058l-.164.047c-.05.012-.106.016-.16.023a.452.452 0 0 1-.145.004 1.27 1.27 0 0 1-.129-.007c-.043 0-.078-.016-.11-.024a5.214 5.214 0 0 1-.144-.043s.118-.023.149-.027c.027-.008.062-.012.097-.028.032-.015.07-.03.11-.05.039-.012.078-.04.117-.063.035-.027.078-.05.113-.082l.11-.097c.039-.032.07-.075.101-.11s.063-.066.086-.11c.028-.034.05-.073.078-.109.02-.03.032-.062.047-.093.016-.032.028-.047.043-.078a.496.496 0 0 1 .024-.051 3.896 3.896 0 0 0-.133-.125s0 .004-.004.004l-.149.093c-.03.02-.058.04-.117.07a2.16 2.16 0 0 1-.168.079.657.657 0 0 1-.183.054c-.063.012-.125.036-.192.036-.062 0-.125 0-.191.004a1.55 1.55 0 0 1-.188-.028.653.653 0 0 1-.172-.043c-.054-.02-.105-.031-.152-.054l-.129-.067c-.082-.035-.14-.09-.183-.117l-.067-.047s.031.004.078.016c.051.004.118.031.2.027.043.004.085.004.132.008.047 0 .098-.012.145-.016a.522.522 0 0 0 .152-.027c.051-.016.098-.027.149-.043.043-.024.09-.047.136-.07.043-.016.079-.055.118-.082.035-.028.074-.051.097-.082.024-.028.043-.051.067-.075.015-.015.043-.058.066-.086a1.79 1.79 0 0 1 .094-.132c-.004 0-.004-.004-.004-.004-.055-.094-.168-.301-.18-.317a.466.466 0 0 1-.078.032s-.144.042-.184.05a.889.889 0 0 1-.16.032 1.111 1.111 0 0 1-.199.023l-.207-.012c-.07 0-.137-.027-.207-.043-.07-.02-.14-.035-.207-.07-.062-.031-.129-.059-.191-.094l-.172-.113c-.11-.07-.192-.168-.27-.234-.039-.036-.066-.075-.094-.106l-.132-.156.078.047" fill="#001d64"></path>
                        </g>
                    </g>
                </g>
            </g>
        </g>
        <g clip-path="url(#1c11d14c-077f-488a-bbc8-ee3abe8e1c8a_comp-lx2x2fwk)">
            <g clip-path="url(#ed1eb00e-6c26-4608-b736-4e4eb0dc211e_comp-lx2x2fwk)">
                <g clip-path="url(#43011306-c267-4d44-9dfe-8bf59db5c341_comp-lx2x2fwk)">
                    <path d="M148.395 154.84c-.602-.098-1.043-.586-1.278-.918.492-.145 1.211-.59 1.555-.895.262.375.844.977 1.285 1.235-.547.465-1.07.66-1.562.578Zm5.328-1.809a.234.234 0 0 0-.356.012c-1.703 2.05-3.449.86-4.383-.492.055-.434.223-1.82.266-2.18 1.184-.05 1.531-1.582 3.297-1.594 1.773.012 2.621-2.43 1.652-4.023-1.16-1.91-2.355-1.098-3.562-.652-.684.253-1.075.207-1.735-.211-1.086-.688-2.058-1.711-3.617-.223-1.27 1.219-1.125 3.445.438 4.066 1.664.664 1.906 2.22 3.023 2.575-.043.359-.21 1.746-.266 2.18-1.234 1.093-3.207 1.823-4.37-.571a.235.235 0 0 0-.344-.098.307.307 0 0 0-.098.387c.707 1.367 1.633 2.027 2.93 1.844.851 1.355 2.324 1.887 3.832.46 1.218.497 2.277.083 3.293-1.081a.308.308 0 0 0 0-.399" fill="#004aff"></path>
                </g>
            </g>
        </g>
        <g clip-path="url(#2b3e196d-eb94-49e7-b0c4-437a67d08626_comp-lx2x2fwk)">
            <g clip-path="url(#4ac2fb8f-a597-4c35-8877-7029f4c4e2ba_comp-lx2x2fwk)">
                <g clip-path="url(#576f1e59-863c-49e9-af3f-00525c1f3676_comp-lx2x2fwk)">
                    <path d="m154.023 178.625-3.683-2.645 1.941-2.707 3.688 2.645Zm0 0" fill="#98198e"></path>
                </g>
            </g>
        </g>
        <g clip-path="url(#4c4cf297-7f75-4645-8ab6-7fc547897dda_comp-lx2x2fwk)">
            <g clip-path="url(#a79b4177-bbd7-4ed8-a2be-cd5154b56bdd_comp-lx2x2fwk)">
                <g clip-path="url(#7296c30c-6212-45ca-a28d-f40ae92a0ed8_comp-lx2x2fwk)">
                    <path d="m141.398 181.746-.058.012-.106.023a2.14 2.14 0 0 0-.637.293 2.503 2.503 0 0 0-.73.742 2.5 2.5 0 0 0-.3.649l-.024.07c-.008.024-.012.047-.02.07-.02.09-.043.18-.054.27a4.275 4.275 0 0 0-.055 1.223l.012.132c.004.043.012.086.015.13.004.042.012.081.016.124.012.059.02.114.031.172 0 .028-.004.055-.004.082a2.61 2.61 0 0 1-.062.496 1.8 1.8 0 0 1-.063.25l-.007.032-.012.027a.293.293 0 0 1-.02.062l-.023.06-.012.026-.015.032-.012.027-.016.031c-.008.02-.015.04-.027.059l-.031.058c-.004.004-.004.008-.008.012l-.008.012-.016.031-.015.027a.07.07 0 0 0-.02.028l-.035.05c-.012.02-.027.036-.039.055l-.02.024-.02.027c-.01.016-.026.031-.038.047l-.043.05-.024.024-.023.024-.047.043.082-.047c.012-.004.02-.012.028-.016l.054-.035c.016-.016.035-.024.051-.04l.023-.019.028-.02c.015-.015.031-.027.05-.042l.047-.047c.008-.008.016-.012.024-.02l.023-.027.028-.023.007-.012.012-.012.043-.054a.495.495 0 0 0 .043-.051l.024-.028.02-.027.023-.027a.119.119 0 0 1 .019-.028l.04-.058a.66.66 0 0 1 .038-.063c.004-.011.012-.02.016-.031l.02-.031.058-.106v.024c.004.035.004.07.008.101a1.91 1.91 0 0 1-.066.617c-.04.137-.094.278-.157.418-.016.04-.035.07-.055.106a.357.357 0 0 1-.027.055c-.008.015-.016.035-.027.05-.04.075-.078.141-.118.211-.082.14-.171.278-.261.422a2.898 2.898 0 0 0 .746-.613 2.53 2.53 0 0 0 .3-.445c.09-.168.157-.356.2-.547.039-.196.055-.387.055-.575.003-.093-.004-.183-.008-.269-.004-.09-.012-.172-.02-.258-.008-.082-.02-.164-.027-.246l-.027-.234-.012-.114-.012-.113c-.004-.039-.004-.078-.008-.113-.004-.04-.004-.078-.008-.113a5.561 5.561 0 0 1-.003-.442c0-.039.003-.074.003-.113 0-.035.004-.07.008-.11.004-.035.004-.07.012-.109l.012-.11c.011-.073.02-.148.035-.222.004-.02.004-.035.008-.05a.229.229 0 0 0 .007-.051l.012-.051.012-.047c.035-.133.078-.266.133-.395a3.16 3.16 0 0 1 .199-.382 3.8 3.8 0 0 1 .262-.364c.093-.117.195-.23.304-.344.055-.054.11-.109.168-.16.028-.027.055-.054.086-.082a.205.205 0 0 0 .043-.039.414.414 0 0 1 .047-.039c-.02 0-.035 0-.055.004Zm0 0" fill="#54024e"></path>
                </g>
            </g>
        </g>
        <path d="M74.044 326.036a5.009 5.009 0 0 0-1.437-1.328c-.543-.332-1.172-.5-1.89-.5-.75 0-1.391.25-1.922.75-.532.492-.797 1.078-.797 1.766 0 .625.257 1.164.78 1.61.52.437 1.29.855 2.313 1.25 1.77.73 3.02 1.429 3.75 2.093.739.668 1.25 1.387 1.532 2.156.289.762.437 1.606.437 2.531 0 2.262-.668 4.094-2 5.5-1.336 1.407-3.105 2.11-5.312 2.11-1.532 0-2.868-.399-4-1.188-1.125-.8-2.075-1.851-2.844-3.156l2.812-2.734a5.215 5.215 0 0 0 1.61 2.328c.75.605 1.547.906 2.39.906.832 0 1.516-.297 2.047-.89.54-.602.813-1.376.813-2.313 0-.832-.258-1.492-.766-1.985-.512-.488-1.266-.93-2.266-1.328-2.218-.843-3.742-1.734-4.562-2.671-.813-.946-1.219-2.188-1.219-3.72a6.81 6.81 0 0 1 .828-3.296 6.276 6.276 0 0 1 2.329-2.453c1-.614 2.109-.922 3.328-.922 1.082 0 2.218.25 3.406.75 1.187.492 2.078 1.07 2.672 1.734Zm0 0" fill="#004aff"></path>
        <path d="M94.38 321.146v3.78h-7.172v4.892h6.906v3.78h-6.906v6h7.172v3.782h-11.5v-22.234Zm0 0" fill="#004aff"></path>
        <path d="M115.923 327.052a6.288 6.288 0 0 0-2.234-1.735c-.867-.414-1.75-.625-2.656-.625-1.887 0-3.45.747-4.688 2.235-1.242 1.492-1.86 3.297-1.86 5.422 0 2.086.626 3.855 1.876 5.312 1.257 1.461 2.804 2.188 4.64 2.188.938 0 1.836-.219 2.703-.656a7.689 7.689 0 0 0 2.22-1.704v5.157c-.825.398-1.65.714-2.47.953a8.719 8.719 0 0 1-2.578.375c-1.96 0-3.761-.5-5.406-1.5-1.648-1.008-2.969-2.414-3.969-4.219-1-1.813-1.5-3.75-1.5-5.813 0-2.164.477-4.164 1.438-6 .969-1.843 2.289-3.285 3.969-4.328 1.687-1.039 3.539-1.562 5.562-1.562.883 0 1.742.117 2.578.344.832.23 1.625.546 2.375.953Zm0 0" fill="#004aff"></path>
        <path d="M126.796 321.146v12.656c0 2.156.313 3.762.938 4.812.633 1.055 1.629 1.579 2.984 1.579 1.375 0 2.368-.52 2.985-1.563.625-1.04.937-2.629.937-4.766v-12.718h4.328v13.421c0 2.993-.703 5.31-2.109 6.954-1.406 1.636-3.453 2.453-6.14 2.453-2.7 0-4.75-.82-6.157-2.469-1.406-1.656-2.11-3.969-2.11-6.938v-13.421Zm0 0" fill="#004aff"></path>
        <path d="M151.815 321.146c2.344 0 4.145.578 5.406 1.734 1.27 1.148 1.907 2.805 1.907 4.969 0 1.574-.43 2.945-1.282 4.11-.855 1.167-1.945 1.85-3.265 2.046l6.281 9.375h-5.25l-5.39-8.969h-.063v8.969h-4.328v-22.234Zm-1.656 10.234h.469c1.5 0 2.566-.273 3.203-.828.644-.55.969-1.414.969-2.594 0-1.156-.32-1.988-.954-2.5-.625-.508-1.68-.766-3.156-.766h-.531Zm0 0" fill="#004aff"></path>
        <path d="M170.406 321.146v22.234h-4.328v-22.234Zm0 0" fill="#004aff"></path>
        <path d="M189.069 321.146v3.78h-4.484v18.454h-4.329v-18.453h-4.484v-3.781Zm0 0" fill="#004aff"></path>
        <path d="m197.429 321.146 3.906 7.734 4.234-7.734h5.078l-7.015 12.03v10.204h-4.344v-10.203l-6.89-12.031Zm0 0" fill="#004aff"></path>
        <path d="m227.696 332.24-7.515 8.843h9.375v2.297h-14.39l10.171-12.031c.594-.688 1.031-1.344 1.313-1.969a4.8 4.8 0 0 0 .437-2.016c0-1.218-.43-2.238-1.281-3.062-.856-.82-1.903-1.235-3.14-1.235-1.263 0-2.313.418-3.157 1.25-.844.836-1.29 1.938-1.328 3.313h-2.485c.04-1.883.703-3.5 1.985-4.844 1.289-1.344 2.922-2.015 4.89-2.015a7.46 7.46 0 0 1 3.422.812c1.063.531 1.922 1.32 2.578 2.36a6.197 6.197 0 0 1 .985 3.39c0 1.086-.164 2.008-.485 2.766a7.768 7.768 0 0 1-1.375 2.14Zm0 0" fill="#009cff"></path>
        <path d="M255.105 326.02a10.145 10.145 0 0 0-3.172-2.187 8.97 8.97 0 0 0-3.61-.766c-1.574 0-3.058.422-4.453 1.266a9.364 9.364 0 0 0-3.297 3.39 9.062 9.062 0 0 0-1.203 4.548c0 1.574.406 3.078 1.219 4.515a9.237 9.237 0 0 0 3.312 3.406c1.395.844 2.891 1.266 4.485 1.266 1.195 0 2.379-.254 3.547-.766a10.161 10.161 0 0 0 3.172-2.171v3.062a11.26 11.26 0 0 1-3.141 1.61 10.953 10.953 0 0 1-3.484.578c-1.97 0-3.856-.489-5.657-1.47a11.451 11.451 0 0 1-4.312-4.14c-1.086-1.77-1.625-3.707-1.625-5.812 0-2.082.52-4.008 1.562-5.781a11.524 11.524 0 0 1 4.266-4.235c1.8-1.039 3.723-1.562 5.766-1.562 1.257 0 2.488.21 3.687.625 1.195.406 2.176.921 2.938 1.546Zm0 0" fill="#ff00aa"></path>
        <path d="M265.506 321.146v13.718c0 1.844.203 3.164.61 3.954.414.78 1.082 1.417 2 1.906a5.922 5.922 0 0 0 2.843.734c.926 0 1.797-.203 2.61-.61.82-.413 1.422-.874 1.797-1.374.382-.5.656-1.07.812-1.719.156-.656.235-1.64.235-2.953v-13.656h2.484v14.187c0 1.45-.156 2.621-.469 3.516-.305.898-.84 1.734-1.61 2.515a7.91 7.91 0 0 1-2.655 1.782 8.373 8.373 0 0 1-3.204.625 8.222 8.222 0 0 1-3.937-.985c-1.23-.664-2.203-1.547-2.922-2.64-.71-1.102-1.063-2.727-1.063-4.875v-14.125Zm0 0" fill="#ff00aa"></path>
        <path d="M290.465 321.146c5.313 0 7.969 2.046 7.969 6.14 0 1.711-.5 3.121-1.5 4.235-.992 1.105-2.352 1.734-4.078 1.89l7.078 9.969h-3.032l-6.718-9.766h-.625v9.766h-2.485v-22.234Zm-.906 10.296h1.093c1.75 0 3.067-.32 3.954-.968.894-.656 1.343-1.66 1.343-3.016 0-1.476-.437-2.516-1.312-3.11-.875-.6-2.137-.906-3.781-.906h-1.297Zm0 0" fill="#ff00aa"></path>
        <path d="M318.38 321.146v2.296h-9.046v6.61h8.781v2.297h-8.781v8.734h9.047v2.297h-11.532v-22.234Zm0 0" fill="#ff00aa"></path>
    </g>
</svg>